<?xml version="1.0" encoding="UTF-8" standalone="no"?><!DOCTYPE svg PUBLIC "-//W3C//DTD SVG 1.1//EN" "http://www.w3.org/Graphics/SVG/1.1/DTD/svg11.dtd"><svg width="100%" height="100%" viewBox="0 0 500 500" version="1.1" xmlns="http://www.w3.org/2000/svg" xmlns:xlink="http://www.w3.org/1999/xlink" xml:space="preserve" xmlns:serif="http://www.serif.com/" style="fill-rule:evenodd;clip-rule:evenodd;stroke-linejoin:round;stroke-miterlimit:2;"><path d="M157.825,0c0,0 5.786,10.915 5.991,15.691c0.127,2.929 -2.149,5.409 -5.077,5.534c-2.928,0.127 -5.409,-2.148 -5.535,-5.077c-0.206,-4.775 4.621,-16.148 4.621,-16.148Z" style="fill:#0d79f2;fill-opacity:0.75;"/><path d="M302.088,161.706c-0,-0 5.785,10.915 5.991,15.691c0.127,2.928 -2.149,5.408 -5.078,5.534c-2.928,0.127 -5.409,-2.149 -5.534,-5.077c-0.206,-4.776 4.621,-16.148 4.621,-16.148Z" style="fill:#1ac2e6;fill-opacity:0.75;"/><path d="M455.865,169.602c-0,-0 5.786,10.915 5.992,15.691c0.126,2.928 -2.149,5.408 -5.078,5.534c-2.929,0.127 -5.409,-2.149 -5.535,-5.077c-0.205,-4.776 4.621,-16.148 4.621,-16.148Z" style="fill:#0d28f2;fill-opacity:0.75;"/><path d="M443.746,294.481c0,0 5.787,10.916 5.992,15.692c0.127,2.929 -2.149,5.409 -5.077,5.534c-2.929,0.126 -5.41,-2.149 -5.535,-5.078c-0.206,-4.776 4.62,-16.148 4.62,-16.148Z" style="fill:#420df2;fill-opacity:0.75;"/><path d="M155.102,239.61c0,0 5.787,10.916 5.992,15.691c0.127,2.93 -2.149,5.41 -5.077,5.535c-2.929,0.126 -5.41,-2.149 -5.535,-5.078c-0.207,-4.775 4.62,-16.148 4.62,-16.148Z" style="fill:#0d28f2;fill-opacity:0.75;"/><path d="M108.816,331.162c0,-0 5.787,10.915 5.993,15.69c0.126,2.929 -2.15,5.409 -5.079,5.535c-2.928,0.126 -5.408,-2.149 -5.534,-5.077c-0.207,-4.777 4.62,-16.148 4.62,-16.148Z" style="fill:#0dcaf2;fill-opacity:0.75;"/><path d="M314.083,421.784c-0,0 5.785,10.915 5.991,15.691c0.126,2.929 -2.149,5.409 -5.078,5.535c-2.928,0.126 -5.408,-2.149 -5.534,-5.078c-0.206,-4.775 4.621,-16.148 4.621,-16.148Z" style="fill:#0d79f2;fill-opacity:0.75;"/><path d="M244.147,449.608c0,-0 5.786,10.915 5.992,15.691c0.126,2.928 -2.149,5.408 -5.079,5.534c-2.928,0.127 -5.408,-2.148 -5.534,-5.078c-0.206,-4.775 4.621,-16.147 4.621,-16.147Z" style="fill:#420df2;fill-opacity:0.75;"/></svg>