<?xml version="1.0" encoding="UTF-8" standalone="no"?><!DOCTYPE svg PUBLIC "-//W3C//DTD SVG 1.1//EN" "http://www.w3.org/Graphics/SVG/1.1/DTD/svg11.dtd"><svg width="100%" height="100%" viewBox="0 0 1024 1024" version="1.1" xmlns="http://www.w3.org/2000/svg" xmlns:xlink="http://www.w3.org/1999/xlink" xml:space="preserve" xmlns:serif="http://www.serif.com/" style="fill-rule:evenodd;clip-rule:evenodd;stroke-linecap:round;stroke-linejoin:round;stroke-miterlimit:1.5;"><g><g><path d="M258.721,90.71c1.862,-5.398 10.655,-12.449 22.217,-16.404c9.746,-3.334 18.295,-3.361 22.351,-1.143c6.144,-3.616 14.135,-6.898 23.091,-8.855c21.981,-4.803 39.836,0.445 39.004,9.705c-0.805,8.972 -18.653,18.527 -38.617,23.267c-11.661,2.769 -21.787,3.345 -28.544,2.084c-4.577,7.835 -17.4,16.835 -32.073,23.207c-13.826,6.003 -26.441,8.438 -33.488,6.359c-1.075,3.399 -3.359,6.709 -3.818,7.378c12.726,-4.466 23.205,-3.17 25.08,3.533c0.029,0.102 0.179,0.633 0.251,1.325c5.014,-4.97 12.153,-9.849 20.523,-13.329c2.148,-0.892 3.945,-1.502 4.29,-1.619c-0.944,-0.958 -1.157,-2.036 -1.197,-2.243c-1.073,-5.478 7.851,-13.876 20.36,-17.932c12.28,-3.983 22.813,-2.078 23.215,3.543c0.34,4.76 -6.699,10.84 -16.475,14.94c3.421,1.24 5.291,3.198 6.106,4.969c2.003,-0.983 4.447,-1.953 7.01,-2.685c1.569,-0.447 2.878,-0.713 3.128,-0.764c-0.605,-1.207 -0.716,-2.337 -0.738,-2.557c-0.897,-9.064 14.552,-20.773 35.049,-24.027c19.966,-3.17 35.942,3.123 34.988,12.314c-0.908,8.764 -16.772,17.127 -35.04,20.324c-5.928,1.037 -11.477,1.381 -15.818,1.229c-1.345,4.946 -9.239,10.494 -19.038,13.387c-7.557,2.231 -14.293,2.295 -18.117,0.604c-4.994,4.317 -12.048,8.752 -20.177,12.283c-17.643,7.665 -33.4,8.158 -36.232,-0.079c-0.034,-0.1 -0.214,-0.623 -0.326,-1.303c-4.567,5.018 -10.968,10.411 -18.364,15.161c-8.889,5.708 -17.231,9.223 -23.539,10.452c-2.17,4.606 -6.694,10.196 -12.514,15.058c-9.673,8.081 -19.351,11.255 -22.391,6.925c-3.445,6.947 -9.121,12.806 -10.109,13.827c-9.271,9.566 -18.906,13.955 -22.197,9.589c-3.375,-4.48 1.177,-16.627 10.964,-26.502c2.26,-2.279 4.248,-3.843 4.642,-4.153c-1.601,-0.129 -2.898,-0.813 -3.637,-2.008c-2.956,-4.773 2.748,-16.657 13.532,-25.865c1.913,-1.633 3.546,-2.785 3.868,-3.012c-3.827,-8.287 7.33,-26.817 26.854,-39.657c2.64,-1.737 4.889,-2.989 5.324,-3.231c-1.206,-5.447 7.033,-15.674 19.535,-22.468c11.995,-6.519 23.01,-7.202 25.109,-2.532c4.383,-3.224 9.938,-6.495 15.958,-9.095Zm-66.677,75.673c-3.072,1.532 -5.445,2.464 -5.924,2.653c-1.35,5.371 -6.858,12.996 -14.382,19.57c-2.369,2.07 -4.357,3.504 -4.753,3.79c1.461,0.186 2.682,0.85 3.409,1.954c2.326,-4.364 6.256,-9.173 11.239,-13.246c2.668,-2.18 5.358,-3.898 7.585,-5.062c0.003,-2.237 0.707,-5.58 2.826,-9.659Z" style="fill:#ebebeb;fill-opacity:0.5;"/></g><g><path d="M553.216,130.059l-71.004,72.025l-83.008,-48.751l19.703,-102.156l95.184,-14.384l39.125,93.266Z" style="fill:#f2af0d;"/><path d="M405.004,123.261l7.588,-39.339c119.077,-50.009 268.345,70.771 268.345,70.771c-169.912,43.011 -245.448,-0.42 -275.933,-31.432Z" style="fill:url(#_Linear1);"/><path d="M644.033,129.317c22.853,14.284 36.858,25.617 36.858,25.617c-15.303,3.873 -29.841,7.046 -43.649,9.59l6.791,-35.207Z" style="fill:#c33;"/><path d="M525.013,128.998l-116.772,-22.522l1.629,-8.443l116.771,22.522l-1.628,8.443Z" style="fill:#f2af0d;"/><path d="M615.557,142.083c-1.219,6.317 -7.337,10.456 -13.654,9.238c-6.317,-1.218 -10.456,-7.336 -9.238,-13.653c1.218,-6.318 7.336,-10.457 13.653,-9.239c6.318,1.219 10.457,7.337 9.239,13.654Z" style="fill:#0dcaf2;"/><path d="M619.975,142.935c-1.688,8.756 -10.168,14.493 -18.924,12.805c-8.756,-1.689 -14.493,-10.169 -12.805,-18.925c1.689,-8.755 10.169,-14.493 18.925,-12.804c8.755,1.688 14.493,10.168 12.804,18.924Zm-4.418,-0.852c1.218,-6.317 -2.921,-12.435 -9.239,-13.654c-6.317,-1.218 -12.435,2.921 -13.653,9.239c-1.218,6.317 2.921,12.435 9.238,13.653c6.317,1.218 12.435,-2.921 13.654,-9.238Z" style="fill:#f2af0d;"/></g><g><path d="M254.34,130.206c38.961,-40.607 91.518,-56.566 125.347,-53.945c12.854,0.997 21.792,10.893 19.031,22.174c-2.311,9.451 -12.339,17.204 -23.773,16.448c-23.577,-1.557 -66.058,-8.32 -120.605,15.323Z" style="fill:url(#_Radial2);"/></g><path d="M380.841,119.04l8.266,-42.859l22.015,15.359l-4.133,21.43l-26.148,6.07Z" style="fill:#808080;"/><path d="M405.522,87.633l-5.027,26.844" style="fill:none;stroke:#525252;stroke-width:2px;"/><path d="M399.811,83.649l-6.066,32.395" style="fill:none;stroke:#525252;stroke-width:2px;"/><path d="M394.006,79.599l-7.123,38.038" style="fill:none;stroke:#525252;stroke-width:2px;"/></g><defs><linearGradient id="_Linear1" x1="0" y1="0" x2="1" y2="0" gradientUnits="userSpaceOnUse" gradientTransform="matrix(-17.8407,92.5011,-92.5011,-17.8407,553.766,83.0056)"><stop offset="0" style="stop-color:#b3b3b3;stop-opacity:1"/><stop offset="0.48" style="stop-color:#fff;stop-opacity:1"/><stop offset="1" style="stop-color:#b3b3b3;stop-opacity:1"/></linearGradient><radialGradient id="_Radial2" cx="0" cy="0" r="1" gradientUnits="userSpaceOnUse" gradientTransform="matrix(-2.1476,-26.1103,85.8727,-6.97275,380.708,97.1213)"><stop offset="0" style="stop-color:#fff;stop-opacity:0.75"/><stop offset="0.5" style="stop-color:#e5f20d;stop-opacity:0.75"/><stop offset="0.75" style="stop-color:#f2af0d;stop-opacity:0.75"/><stop offset="1" style="stop-color:#f20d0d;stop-opacity:0.75"/></radialGradient></defs></svg>