<?xml version="1.0" encoding="UTF-8" standalone="no"?><!DOCTYPE svg PUBLIC "-//W3C//DTD SVG 1.1//EN" "http://www.w3.org/Graphics/SVG/1.1/DTD/svg11.dtd"><svg width="100%" height="100%" viewBox="0 0 500 500" version="1.1" xmlns="http://www.w3.org/2000/svg" xmlns:xlink="http://www.w3.org/1999/xlink" xml:space="preserve" xmlns:serif="http://www.serif.com/" style="fill-rule:evenodd;clip-rule:evenodd;stroke-linejoin:round;stroke-miterlimit:2;"><path d="M65.184,12l3.995,3.119l-1.998,2.955l3.232,1.129l-1.526,5.047l-3.231,-1.129l-0,3.652l-4.937,0l-0,-3.652l-3.232,1.129l-1.525,-5.047l3.231,-1.129l-1.997,-2.955l3.994,-3.119l1.997,2.955l1.997,-2.955Z" style="fill:#fff;fill-opacity:0.75;"/><path d="M267.64,90.107l3.994,3.119l-1.997,2.955l3.232,1.128l-1.526,5.048l-3.232,-1.129l0,3.652l-4.937,0l0,-3.652l-3.231,1.129l-1.526,-5.048l3.232,-1.128l-1.997,-2.955l3.994,-3.119l1.997,2.954l1.997,-2.954Z" style="fill:#fff;fill-opacity:0.75;"/><path d="M408.564,26.773l3.994,3.12l-1.997,2.954l3.231,1.129l-1.525,5.047l-3.232,-1.128l0,3.652l-4.937,-0l0,-3.652l-3.231,1.128l-1.526,-5.047l3.232,-1.129l-1.997,-2.954l3.994,-3.12l1.997,2.955l1.997,-2.955Z" style="fill:#fff;fill-opacity:0.75;"/><path d="M455.198,142.769l3.994,3.119l-1.997,2.955l3.232,1.129l-1.526,5.047l-3.231,-1.129l-0,3.652l-4.937,0l-0,-3.652l-3.232,1.129l-1.526,-5.047l3.232,-1.129l-1.997,-2.955l3.994,-3.119l1.997,2.955l1.997,-2.955Z" style="fill:#fff;fill-opacity:0.75;"/><path d="M174.052,227.922l3.994,3.119l-1.997,2.955l3.232,1.129l-1.526,5.047l-3.231,-1.129l-0,3.653l-4.937,-0l-0,-3.653l-3.232,1.129l-1.526,-5.047l3.232,-1.129l-1.997,-2.955l3.994,-3.119l1.997,2.955l1.997,-2.955Z" style="fill:#fff;fill-opacity:0.75;"/><path d="M399.817,315.898l3.994,3.12l-1.997,2.954l3.232,1.129l-1.526,5.047l-3.231,-1.128l-0,3.652l-4.937,-0l-0,-3.652l-3.232,1.128l-1.525,-5.047l3.231,-1.129l-1.997,-2.954l3.994,-3.12l1.997,2.955l1.997,-2.955Z" style="fill:#fff;fill-opacity:0.75;"/><path d="M350.593,373.546l3.994,3.12l-1.997,2.954l3.232,1.129l-1.526,5.047l-3.231,-1.128l-0,3.652l-4.938,-0l0,-3.652l-3.231,1.128l-1.526,-5.047l3.232,-1.129l-1.997,-2.954l3.994,-3.12l1.997,2.955l1.997,-2.955Z" style="fill:#fff;fill-opacity:0.75;"/><path d="M175.296,329.757l3.994,3.119l-1.997,2.955l3.231,1.128l-1.525,5.048l-3.232,-1.129l0,3.652l-4.937,0l0,-3.652l-3.231,1.129l-1.526,-5.048l3.231,-1.128l-1.997,-2.955l3.995,-3.119l1.997,2.955l1.997,-2.955Z" style="fill:#fff;fill-opacity:0.75;"/><path d="M289.907,468.331l3.994,3.12l-1.997,2.954l3.231,1.129l-1.525,5.047l-3.232,-1.129l0,3.653l-4.937,-0l0,-3.653l-3.231,1.129l-1.526,-5.047l3.231,-1.129l-1.997,-2.954l3.994,-3.12l1.998,2.955l1.997,-2.955Z" style="fill:#fff;fill-opacity:0.75;"/><path d="M48.734,471.502l3.994,3.12l-1.997,2.954l3.231,1.129l-1.526,5.047l-3.231,-1.129l0,3.653l-4.937,-0l-0,-3.653l-3.231,1.129l-1.526,-5.047l3.231,-1.129l-1.997,-2.954l3.994,-3.12l1.997,2.955l1.998,-2.955Z" style="fill:#fff;fill-opacity:0.75;"/></svg>