<?xml version="1.0" encoding="UTF-8" standalone="no"?><!DOCTYPE svg PUBLIC "-//W3C//DTD SVG 1.1//EN" "http://www.w3.org/Graphics/SVG/1.1/DTD/svg11.dtd"><svg width="100%" height="100%" viewBox="0 0 500 500" version="1.1" xmlns="http://www.w3.org/2000/svg" xmlns:xlink="http://www.w3.org/1999/xlink" xml:space="preserve" xmlns:serif="http://www.serif.com/" style="fill-rule:evenodd;clip-rule:evenodd;stroke-linejoin:round;stroke-miterlimit:2;"><path d="M63.221,12l1.94,5.97l6.277,0l-5.078,3.69l1.94,5.97l-5.079,-3.69l-5.078,3.69l1.939,-5.97l-5.078,-3.69l6.277,0l1.94,-5.97Z" style="fill:#0dcaf2;fill-opacity:0.77;"/><path d="M265.633,88.298l1.94,5.97l6.278,0l-5.079,3.69l1.94,5.97l-5.079,-3.689l-5.078,3.689l1.94,-5.97l-5.079,-3.69l6.277,0l1.94,-5.97Z" style="fill:#fff;fill-opacity:0.77;"/><path d="M172.2,226.97l1.94,5.97l6.277,0l-5.078,3.69l1.94,5.97l-5.079,-3.69l-5.078,3.69l1.939,-5.97l-5.078,-3.69l6.277,0l1.94,-5.97Z" style="fill:#491ae6;fill-opacity:0.77;"/><path d="M453.074,142.117l1.94,5.97l6.277,-0l-5.078,3.69l1.939,5.97l-5.078,-3.69l-5.079,3.69l1.94,-5.97l-5.078,-3.69l6.277,-0l1.94,-5.97Z" style="fill:#1a7ae6;fill-opacity:0.77;"/><path d="M398.084,314.091l1.94,5.97l6.278,-0l-5.079,3.69l1.94,5.97l-5.079,-3.69l-5.078,3.69l1.94,-5.97l-5.079,-3.69l6.278,-0l1.939,-5.97Z" style="fill:#e6a91a;fill-opacity:0.77;"/><path d="M347.984,370.647l1.94,5.97l6.277,0l-5.078,3.69l1.939,5.97l-5.078,-3.689l-5.079,3.689l1.94,-5.97l-5.078,-3.69l6.277,0l1.94,-5.97Z" style="fill:#dae61a;fill-opacity:0.77;"/><path d="M173.373,327.782l1.94,5.971l6.278,-0l-5.079,3.689l1.94,5.971l-5.079,-3.69l-5.078,3.69l1.94,-5.971l-5.079,-3.689l6.278,-0l1.939,-5.971Z" style="fill:#fff;fill-opacity:0.77;"/><path d="M47.673,470.212l1.94,5.97l6.277,0l-5.078,3.69l1.94,5.97l-5.079,-3.69l-5.079,3.69l1.94,-5.97l-5.078,-3.69l6.277,0l1.94,-5.97Z" style="fill:#e6611a;fill-opacity:0.77;"/><path d="M287.994,467.36l1.94,5.971l6.277,-0l-5.078,3.689l1.94,5.971l-5.079,-3.69l-5.079,3.69l1.94,-5.971l-5.078,-3.689l6.277,-0l1.94,-5.971Z" style="fill:#1ae6c1;fill-opacity:0.77;"/><path d="M406.12,24.81l1.939,5.971l6.278,-0l-5.079,3.689l1.94,5.971l-5.078,-3.69l-5.079,3.69l1.94,-5.971l-5.079,-3.689l6.278,-0l1.94,-5.971Z" style="fill:#bf4040;fill-opacity:0.77;"/></svg>